<svg width="71" height="60" viewBox="0 0 71 60" fill="none" xmlns="http://www.w3.org/2000/svg">
<path d="M7.40496 53.8346C-4.19504 49.4346 2.57163 20.668 7.40496 6.83463C10.5624 -3.66537 54.405 2.33463 64.405 6.83463C74.405 11.3346 68.905 45.8346 64.405 53.8346C59.905 61.8346 21.905 59.3346 7.40496 53.8346Z" stroke="black"/>
<path d="M50.5001 29.5C48.9001 31.5 47.5 30.8333 46 30C44 27.5 47.5 26 43.5 23C40.5497 20.7873 34.6667 22 34 25C33.6667 26.5 32.6 31 39 31C45.4 31 44.6667 33.5 42.5 35.5C39.5 36.5 33.2 34.7 34 37.5C34.8 40.3 33.6667 49.3333 33 53.5C32.3334 54.3333 30.1001 55.5 26.5001 53.5C22.0001 51 24.0001 17 28.5001 13C33.0001 9 39.5001 11.5 46.5001 13C53.5001 14.5 52.5001 27 50.5001 29.5Z" stroke="black"/>
</svg>
