<svg width="71" height="60" viewBox="0 0 71 60" fill="none" xmlns="http://www.w3.org/2000/svg">
<path d="M7.40496 53.8346C-4.19504 49.4346 2.57163 20.668 7.40496 6.83463C10.5624 -3.66537 54.405 2.33463 64.405 6.83463C74.405 11.3346 68.905 45.8346 64.405 53.8346C59.905 61.8346 21.905 59.3346 7.40496 53.8346Z" stroke="black"/>
<path d="M17.7423 51.7972C16.3979 49.8987 17.1821 37.4864 17.7423 31.5175C18.1083 26.987 23.1896 29.5759 24.3485 31.5175C25.5075 33.4592 24.8701 48.3453 24.3485 51.7972C23.827 55.2491 19.4229 54.1704 17.7423 51.7972Z" stroke="black"/>
<path d="M16.5972 21.2668L16.1443 21.3633L16.5972 21.2668C16.2804 19.7791 16.768 18.611 17.6327 17.7977C18.5144 16.9685 19.8019 16.5 21.0541 16.5C23.4319 16.5 24.4598 17.1874 24.9528 18.0104C25.4865 18.9014 25.5 20.0917 25.5 21.371C25.5 21.9042 25.369 22.3079 25.1572 22.6301C24.9422 22.9571 24.6244 23.2293 24.2084 23.4644C23.3693 23.9385 22.234 24.2093 20.9966 24.4999C19.6893 24.4947 18.7479 24.3121 18.0657 23.858C17.3931 23.4103 16.8899 22.6412 16.5972 21.2668Z" stroke="black"/>
<path d="M37.2003 27.4467C34.0003 28.2467 34.8671 44.28 36.2004 51.9467C37.2004 52.6134 39.6004 53.7467 41.2004 52.9467C43.2004 51.9467 37.2003 36.9467 39.7003 36.9467C42.7417 36.9467 44.8287 50.1561 47.2004 50.9467C50.2004 51.9467 53.2004 51.4467 55.2004 49.9467C58.1124 47.7627 54.9485 28.7787 53.7004 27.9467C52.2003 26.9467 52.2004 26.4467 49.7004 27.9467C47.2004 29.4467 52.7003 41.9467 50.2003 44.4467C47.7003 46.9467 41.2003 26.4467 37.2003 27.4467Z" stroke="black"/>
</svg>
