<svg width="71" height="60" viewBox="0 0 71 60" fill="none" xmlns="http://www.w3.org/2000/svg">
<path d="M6.99999 53.5C-4.60001 49.1 2.16666 20.3333 6.99999 6.5C10.1575 -4 54 2 64 6.5C74 11 68.5 45.5 64 53.5C59.5 61.5 21.5 59 6.99999 53.5Z" stroke="black"/>
<path d="M47.5 32.3226C47.5 33.8939 47.1204 35.1347 46.474 36.143C45.8249 37.1555 44.8879 37.9627 43.7307 38.6333C41.4167 39.9744 38.3172 40.7208 35.1099 41.4931L35.0814 41.5C31.5894 41.4946 28.9205 41.009 26.9323 39.6516C24.9505 38.2985 23.5591 36.0178 22.7708 32.2209L22.2812 32.3226L22.7707 32.2209C21.883 27.9454 23.2609 24.5368 25.7015 22.1824C28.1581 19.8127 31.7069 18.5 35.1406 18.5C41.4698 18.5 44.4761 20.3861 45.9608 22.9282C47.487 25.5413 47.5 28.9726 47.5 32.3226Z" stroke="black"/>
<path d="M51.5972 17.2668L51.1443 17.3633L51.5972 17.2668C51.2804 15.7791 51.768 14.611 52.6327 13.7977C53.5144 12.9685 54.8019 12.5 56.0541 12.5C58.4319 12.5 59.4598 13.1874 59.9528 14.0104C60.4865 14.9014 60.5 16.0917 60.5 17.371C60.5 17.9042 60.369 18.3079 60.1572 18.6301C59.9422 18.9571 59.6244 19.2293 59.2084 19.4644C58.3693 19.9385 57.234 20.2093 55.9966 20.4999C54.6893 20.4947 53.7479 20.3121 53.0657 19.858C52.3931 19.4103 51.8899 18.6412 51.5972 17.2668Z" stroke="black"/>
</svg>
