<svg width="274" height="260" viewBox="0 0 274 260" fill="none" xmlns="http://www.w3.org/2000/svg">
<path d="M0.954215 173.5V173.485L0.953343 173.47C-5.03804 72.1161 49.0172 0.5 120.954 0.5C156.992 0.5 195.005 16.2328 224.011 40.9993C253.017 65.7665 272.954 99.5133 272.954 135.5C272.954 207.524 211.079 259.5 138.954 259.5C102.792 259.5 68.2661 255.96 42.7939 243.432C30.0677 237.173 19.6155 228.678 12.3423 217.269C5.06972 205.862 0.954215 191.509 0.954215 173.5Z" stroke="#110D0D"/>
<path d="M105.486 130.788V130.735C105.486 130.185 105.015 128.808 104.071 126.604C103.907 126.224 103.822 126.033 103.817 126.033L103.562 126.622C102.589 128.89 102.103 130.267 102.103 130.753C102.103 130.835 102.152 130.879 102.252 130.885C102.358 130.891 102.437 130.894 102.489 130.894L103.175 130.911H103.799L103.86 130.902C104.944 130.902 105.486 130.864 105.486 130.788ZM98.1564 135.473C98.1564 135.326 98.3234 135.156 98.6573 134.963C98.9913 134.77 99.2374 134.523 99.3956 134.225C99.5538 133.926 99.7765 133.387 100.064 132.607C100.351 131.822 100.74 130.835 101.233 129.646C101.731 128.456 102.123 127.39 102.41 126.446C102.703 125.497 102.902 124.896 103.008 124.645C103.248 124.07 103.588 123.783 104.027 123.783H104.274C104.385 123.783 104.523 123.845 104.687 123.968C105.021 124.22 105.369 124.759 105.733 125.585C105.856 125.866 106.04 126.35 106.286 127.035C106.532 127.715 107.025 129.048 107.763 131.034C108.501 133.021 108.914 134.102 109.002 134.277C109.149 134.582 109.398 134.828 109.749 135.016C110.101 135.197 110.276 135.344 110.276 135.455C110.276 135.701 110.13 135.854 109.837 135.912C109.638 135.953 109.134 135.974 108.325 135.974L107.816 135.982C106.732 135.982 106.19 135.836 106.19 135.543C106.19 135.49 106.257 135.364 106.392 135.165C106.532 134.966 106.603 134.714 106.603 134.409C106.603 134.104 106.491 133.668 106.269 133.1C106.052 132.531 105.867 132.18 105.715 132.045C105.568 131.91 104.933 131.843 103.808 131.843C102.683 131.843 102.026 131.904 101.839 132.027C101.651 132.15 101.449 132.481 101.233 133.021C101.016 133.56 100.907 133.999 100.907 134.339C100.907 134.673 101.01 134.969 101.215 135.227C101.426 135.484 101.531 135.619 101.531 135.631C101.531 135.842 101.171 135.947 100.45 135.947C99.7355 135.947 99.173 135.921 98.7628 135.868C98.3585 135.81 98.1564 135.678 98.1564 135.473ZM116.068 128.512H115.814C115.503 128.512 115.198 128.6 114.9 128.775C114.607 128.945 114.378 129.156 114.214 129.408C114.056 129.66 113.977 130.381 113.977 131.57V132.968C113.977 133.835 114.109 134.436 114.372 134.77C114.636 135.098 115.09 135.262 115.734 135.262H115.919C116.54 135.262 117.041 134.969 117.422 134.383C117.803 133.791 117.993 133.12 117.993 132.37L118.011 132.168V131.544C118.011 130.683 117.823 129.962 117.448 129.382C117.073 128.802 116.613 128.512 116.068 128.512ZM111.973 134.954C111.973 134.89 112.005 134.594 112.069 134.066C112.14 133.539 112.175 132.9 112.175 132.15V129.619L112.184 129.188V127.431L112.175 127V126.569L112.166 126.358C112.16 126.212 112.157 125.969 112.157 125.629C112.157 124.932 111.97 124.495 111.595 124.319C111.226 124.144 111.041 123.974 111.041 123.81C111.041 123.687 111.126 123.584 111.296 123.502C111.718 123.297 112.365 123.194 113.238 123.194C113.59 123.194 113.816 123.394 113.915 123.792C113.974 124.021 114.003 124.814 114.003 126.174C114.003 127.533 114.111 128.213 114.328 128.213C114.463 128.213 114.762 128.119 115.225 127.932C115.688 127.744 116.171 127.65 116.675 127.65C117.642 127.65 118.442 128.02 119.074 128.758C119.713 129.496 120.032 130.46 120.032 131.649V131.878C120.032 132.452 119.93 133.009 119.725 133.548C119.32 134.603 118.638 135.344 117.677 135.771C117.161 136 116.631 136.114 116.086 136.114H115.875C115.647 136.114 115.298 136.059 114.829 135.947C114.36 135.836 113.895 135.78 113.432 135.78L112.711 135.842C112.219 135.842 111.973 135.546 111.973 134.954ZM123.557 131.474V131.799C123.557 132.795 123.75 133.621 124.137 134.277C124.318 134.588 124.55 134.834 124.831 135.016C125.112 135.197 125.397 135.288 125.684 135.288H125.859C126.393 135.288 126.853 135.03 127.239 134.515C127.632 133.993 127.828 133.255 127.828 132.3V131.676C127.828 130.732 127.632 129.933 127.239 129.276C126.853 128.614 126.36 128.283 125.763 128.283H125.49C124.951 128.283 124.494 128.573 124.119 129.153C123.744 129.733 123.557 130.507 123.557 131.474ZM129.946 131.509V131.948C129.946 132.411 129.853 132.918 129.665 133.469C129.273 134.617 128.49 135.42 127.318 135.877C126.809 136.076 126.317 136.176 125.842 136.176H125.552C124.433 136.176 123.498 135.801 122.748 135.051C122.408 134.711 122.133 134.263 121.922 133.706C121.711 133.149 121.606 132.558 121.606 131.931V131.781C121.606 131.213 121.705 130.639 121.904 130.059C122.291 128.928 123.05 128.143 124.181 127.703C124.691 127.504 125.18 127.404 125.649 127.404H126.088C126.609 127.404 127.122 127.521 127.626 127.756C128.581 128.201 129.246 128.91 129.621 129.883C129.838 130.457 129.946 130.999 129.946 131.509ZM140.361 135.042C140.619 135.241 140.748 135.385 140.748 135.473C140.748 135.555 140.704 135.634 140.616 135.71C140.364 135.938 139.825 136.053 138.999 136.053C138.73 136.053 138.519 136.009 138.366 135.921C138.22 135.827 138.088 135.66 137.971 135.42C137.859 135.18 137.766 135.06 137.69 135.06C137.613 135.065 137.443 135.162 137.18 135.35C136.442 135.883 135.735 136.149 135.062 136.149C135.056 136.149 135.047 136.149 135.035 136.149H134.772C133.805 136.149 133.105 135.739 132.671 134.919C132.448 134.491 132.334 133.445 132.328 131.781C132.328 130.111 132.302 129.194 132.249 129.03C132.196 128.86 132.009 128.702 131.687 128.556C131.37 128.403 131.212 128.286 131.212 128.204C131.212 127.987 131.315 127.847 131.52 127.782C131.977 127.636 132.56 127.562 133.269 127.562C133.679 127.562 133.94 127.729 134.051 128.063C134.197 128.491 134.271 129.514 134.271 131.131C134.271 132.742 134.341 133.721 134.482 134.066C134.722 134.658 135.158 134.954 135.791 134.954C136.119 134.954 136.444 134.869 136.767 134.699C137.095 134.529 137.35 134.301 137.531 134.014C137.713 133.727 137.804 132.938 137.804 131.649C137.804 130.354 137.76 129.54 137.672 129.206C137.59 128.872 137.461 128.611 137.285 128.424C137.109 128.23 137.022 128.078 137.022 127.967C137.022 127.709 137.71 127.58 139.087 127.58C139.374 127.58 139.562 127.645 139.65 127.773C139.737 127.896 139.781 128.125 139.781 128.459L139.755 128.978L139.711 131.315C139.711 132.839 139.755 133.791 139.843 134.172C139.931 134.547 140.104 134.837 140.361 135.042ZM145.96 134.84L147.296 134.638C147.448 134.638 147.525 134.758 147.525 134.998C147.525 135.232 147.299 135.476 146.848 135.728C146.397 135.979 145.922 136.105 145.424 136.105H145.248C144.856 136.105 144.501 136.003 144.185 135.798C143.868 135.593 143.637 135.341 143.49 135.042C143.238 134.521 143.112 133.533 143.112 132.08C143.112 130.621 143.06 129.71 142.954 129.347C142.855 128.983 142.723 128.734 142.559 128.6C142.254 128.354 142.102 128.219 142.102 128.195C142.102 128.043 142.181 127.914 142.339 127.809C142.743 127.539 142.963 127.387 142.998 127.352C143.039 127.311 143.265 126.83 143.675 125.91C143.88 125.453 144.111 125.225 144.369 125.225C144.633 125.225 144.809 125.318 144.897 125.506C144.92 125.553 144.97 125.808 145.046 126.271C145.128 126.733 145.242 127.032 145.389 127.167C145.535 127.296 145.86 127.422 146.364 127.545C146.868 127.662 147.12 127.832 147.12 128.055C147.12 128.277 146.842 128.444 146.285 128.556C145.729 128.667 145.392 128.811 145.275 128.986C145.069 129.285 144.967 130.129 144.967 131.518C144.967 132.906 145.031 133.782 145.16 134.146C145.324 134.608 145.591 134.84 145.96 134.84Z" fill="#110D0D"/>
</svg>
