<svg width="266" height="272" viewBox="0 0 266 272" fill="none" xmlns="http://www.w3.org/2000/svg">
<path d="M176.5 271H176.489L176.478 271C109.388 273.993 65.4202 248.276 38.2091 212.827C10.9792 177.353 0.5 132.093 0.5 96C0.5 59.9995 15.947 36.1616 40.3789 21.2962C64.847 6.4087 98.3651 0.5 134.5 0.5C206.573 0.5 265 58.9268 265 131C265 167.154 260.837 202.182 247.685 228.155C241.113 241.133 232.304 251.838 220.659 259.3C209.015 266.761 194.506 271 176.5 271Z" stroke="#110D0D"/>
<path d="M102.358 138.238C102.44 138.238 103.009 137.102 104.063 134.828C105.118 132.549 105.769 131.222 106.015 130.847C106.261 130.472 106.545 130.22 106.867 130.091C107.189 129.956 107.702 129.889 108.405 129.889C109.114 129.889 109.469 130.053 109.469 130.381L109.258 130.645L108.985 130.935C108.81 131.163 108.684 131.43 108.607 131.734C108.537 132.033 108.502 132.528 108.502 133.22C108.502 136.161 108.578 138.306 108.73 139.653C108.789 140.181 108.979 140.597 109.302 140.901C109.624 141.2 109.785 141.399 109.785 141.499L109.565 141.657C109.284 141.786 108.73 141.851 107.904 141.851C107.078 141.851 106.56 141.742 106.349 141.525L106.261 141.332C106.261 141.162 106.325 140.813 106.454 140.286C106.583 139.753 106.647 139.223 106.647 138.695C106.647 134.852 106.524 132.93 106.278 132.93C106.155 132.93 105.596 134.119 104.6 136.498C103.604 138.877 102.991 140.274 102.763 140.69C102.54 141.101 102.244 141.306 101.875 141.306C101.617 141.306 100.911 139.899 99.7568 137.087C98.6084 134.269 97.9346 132.859 97.7354 132.859C97.5713 132.859 97.4893 134.298 97.4893 137.175C97.4893 138.452 97.5098 139.237 97.5508 139.53C97.5918 139.823 97.6592 140.175 97.7529 140.585C97.8525 140.995 97.9023 141.268 97.9023 141.402C97.9023 141.537 97.8115 141.648 97.6299 141.736C97.4482 141.824 97.2139 141.868 96.9268 141.868H96.4434C95.4766 141.868 94.9932 141.745 94.9932 141.499C94.9932 141.376 95.1572 141.174 95.4854 140.893C95.8193 140.605 96.0127 140.359 96.0654 140.154C96.124 139.943 96.2002 138.889 96.2939 136.99C96.3877 135.086 96.4346 133.794 96.4346 133.114C96.4346 132.435 96.3936 131.963 96.3115 131.699C96.2295 131.43 96.0391 131.148 95.7402 130.855C95.4473 130.562 95.3008 130.34 95.3008 130.188C95.3008 130 95.8428 129.906 96.9268 129.906C97.3428 129.906 97.7031 129.965 98.0078 130.082C98.3125 130.193 98.6113 130.466 98.9043 130.899C99.2031 131.327 99.8242 132.657 100.768 134.89C101.711 137.122 102.241 138.238 102.358 138.238ZM114.276 134.723C114.276 135.35 114.763 136.838 115.735 139.188C115.87 139.516 115.979 139.68 116.061 139.68C116.143 139.68 116.295 139.442 116.518 138.968C117.326 137.257 117.73 135.965 117.73 135.092C117.73 134.84 117.689 134.635 117.607 134.477L117.511 134.318C117.37 134.131 117.3 133.999 117.3 133.923C117.3 133.694 117.672 133.58 118.416 133.58H118.979C119.688 133.58 120.042 133.715 120.042 133.984C120.042 134.137 119.896 134.371 119.603 134.688C119.315 134.998 119.107 135.3 118.979 135.593C118.85 135.886 118.378 137.11 117.563 139.267C116.755 141.417 116.128 142.885 115.683 143.67C115.237 144.461 114.821 145.029 114.435 145.375C114.054 145.721 113.661 145.894 113.257 145.894H113.028C112.724 145.894 112.463 145.806 112.246 145.63C112.035 145.46 111.93 145.281 111.93 145.094C111.93 144.912 112.003 144.763 112.149 144.646C112.302 144.534 112.501 144.479 112.747 144.479L112.949 144.496C113.037 144.502 113.172 144.505 113.354 144.505C113.764 144.505 114.142 144.241 114.487 143.714C114.833 143.187 115.006 142.653 115.006 142.114C115.006 141.575 114.171 139.539 112.501 136.006C112.349 135.684 112.123 135.35 111.824 135.004C111.531 134.658 111.385 134.418 111.385 134.283C111.385 134.061 111.54 133.905 111.851 133.817C112.161 133.724 112.659 133.677 113.345 133.677C114.036 133.677 114.382 133.826 114.382 134.125C114.312 134.43 114.276 134.629 114.276 134.723ZM126.08 130.179C126.297 129.974 126.64 129.871 127.108 129.871C127.583 129.871 127.961 129.924 128.242 130.029C128.77 130.217 129.095 130.729 129.218 131.567C129.276 131.995 129.458 132.862 129.763 134.169C130.073 135.476 130.334 136.437 130.545 137.052C130.762 137.661 131.017 137.966 131.31 137.966C131.603 137.966 131.928 137.368 132.285 136.173C132.648 134.978 132.83 133.905 132.83 132.956C132.83 132.651 132.798 132.364 132.733 132.095L132.628 131.734L132.54 131.392C132.54 130.964 132.704 130.639 133.032 130.416C133.366 130.188 133.762 130.073 134.219 130.073C134.682 130.073 135.089 130.211 135.44 130.486C135.798 130.756 135.977 131.063 135.977 131.409L135.933 131.752L135.871 132.095C135.871 132.985 136.337 134.69 137.269 137.21C137.444 137.69 137.641 137.931 137.857 137.931C138.08 137.931 138.25 137.837 138.367 137.649C138.484 137.456 138.736 136.665 139.123 135.276C139.516 133.888 139.741 132.774 139.8 131.937C139.864 131.099 139.905 130.65 139.923 130.592C140.069 130.117 140.529 129.88 141.303 129.88C141.689 129.88 141.962 129.95 142.12 130.091C142.278 130.226 142.357 130.393 142.357 130.592C142.357 130.785 142.179 131.163 141.821 131.726C141.464 132.288 141.191 132.845 141.004 133.396L140.529 134.854C140.436 135.136 140.333 135.464 140.222 135.839L139.923 136.814C139.243 138.947 138.798 140.207 138.587 140.594C138.247 141.209 137.878 141.517 137.479 141.517C137.028 141.517 136.633 141.127 136.293 140.348C136.123 139.955 135.789 138.968 135.291 137.386C134.799 135.798 134.497 134.863 134.386 134.582L134.219 134.222C134.084 134.222 133.715 135.124 133.111 136.929C132.514 138.728 132.101 139.876 131.872 140.374C131.515 141.153 131.119 141.543 130.686 141.543C130.252 141.543 129.877 141.227 129.561 140.594C129.42 140.307 129.036 139.135 128.409 137.078C127.788 135.021 127.387 133.747 127.205 133.255C127.029 132.763 126.769 132.224 126.423 131.638C126.083 131.052 125.913 130.688 125.913 130.548C125.913 130.407 125.969 130.284 126.08 130.179ZM145.144 137.474V137.799C145.144 138.795 145.337 139.621 145.724 140.277C145.905 140.588 146.137 140.834 146.418 141.016C146.699 141.197 146.983 141.288 147.271 141.288H147.446C147.979 141.288 148.439 141.03 148.826 140.515C149.219 139.993 149.415 139.255 149.415 138.3V137.676C149.415 136.732 149.219 135.933 148.826 135.276C148.439 134.614 147.947 134.283 147.35 134.283H147.077C146.538 134.283 146.081 134.573 145.706 135.153C145.331 135.733 145.144 136.507 145.144 137.474ZM151.533 137.509V137.948C151.533 138.411 151.439 138.918 151.252 139.469C150.859 140.617 150.077 141.42 148.905 141.877C148.396 142.076 147.903 142.176 147.429 142.176H147.139C146.02 142.176 145.085 141.801 144.335 141.051C143.995 140.711 143.72 140.263 143.509 139.706C143.298 139.149 143.192 138.558 143.192 137.931V137.781C143.192 137.213 143.292 136.639 143.491 136.059C143.878 134.928 144.637 134.143 145.768 133.703C146.277 133.504 146.767 133.404 147.235 133.404H147.675C148.196 133.404 148.709 133.521 149.213 133.756C150.168 134.201 150.833 134.91 151.208 135.883C151.425 136.457 151.533 136.999 151.533 137.509ZM157.492 141.657C157.492 141.886 156.962 142 155.901 142H154.97L154.601 141.982L154.047 141.974C153.426 141.974 153.115 141.862 153.115 141.64C153.115 141.481 153.253 141.314 153.528 141.139C153.81 140.957 153.997 140.726 154.091 140.444C154.19 140.157 154.24 139.316 154.24 137.922C154.24 136.527 154.193 135.681 154.1 135.382C154.012 135.083 153.871 134.869 153.678 134.74C153.332 134.512 153.159 134.345 153.159 134.239C153.159 134.134 153.221 134.04 153.344 133.958C153.707 133.712 154.322 133.589 155.189 133.589H155.356C155.69 133.589 155.928 133.759 156.068 134.099C156.209 134.433 156.323 134.6 156.411 134.6C156.499 134.6 156.648 134.518 156.859 134.354C157.076 134.189 157.334 134.025 157.633 133.861C157.938 133.697 158.274 133.615 158.644 133.615C159.013 133.615 159.294 133.712 159.487 133.905C159.687 134.093 159.786 134.336 159.786 134.635C159.78 134.939 159.701 135.168 159.549 135.32C159.396 135.473 159.232 135.549 159.057 135.549C158.881 135.549 158.649 135.479 158.362 135.338C158.075 135.191 157.835 135.118 157.642 135.118C157.448 135.118 157.237 135.2 157.009 135.364C156.78 135.522 156.584 135.81 156.42 136.226C156.262 136.636 156.183 137.342 156.183 138.344C156.183 139.34 156.253 139.984 156.394 140.277C156.534 140.564 156.751 140.828 157.044 141.068C157.343 141.309 157.492 141.505 157.492 141.657ZM164.506 138.273C164.148 138.273 163.97 138.789 163.97 139.82C163.97 140.184 164.055 140.538 164.225 140.884L164.462 141.288C164.544 141.435 164.585 141.54 164.585 141.604C164.585 141.815 163.996 141.921 162.818 141.921C161.641 141.921 161.052 141.821 161.052 141.622C161.052 141.569 161.148 141.411 161.342 141.147C161.541 140.878 161.685 140.564 161.772 140.207C161.866 139.844 161.913 139.003 161.913 137.685L161.922 137.351C161.934 137.052 161.939 136.829 161.939 136.683L161.957 136.015L161.966 135.338V133.976C161.966 132.282 161.934 131.283 161.869 130.979C161.811 130.668 161.702 130.434 161.544 130.275L161.351 130.126L161.14 129.994C160.97 129.871 160.885 129.757 160.885 129.651C160.885 129.54 160.955 129.443 161.096 129.361C161.494 129.133 162.109 129.019 162.941 129.019H163.24C163.574 129.019 163.782 129.256 163.864 129.73C163.894 129.906 163.908 131.219 163.908 133.668L163.899 134.679C163.899 135.481 163.902 135.909 163.908 135.962C163.973 136.519 164.125 136.797 164.365 136.797C164.605 136.797 165.019 136.48 165.604 135.848C166.19 135.209 166.483 134.755 166.483 134.485L166.457 134.169C166.457 133.97 166.533 133.829 166.686 133.747C166.844 133.665 167.169 133.624 167.661 133.624C168.78 133.624 169.34 133.744 169.34 133.984C169.34 133.99 168.821 134.409 167.784 135.241C166.747 136.073 166.229 136.668 166.229 137.025C166.229 137.383 166.94 138.394 168.364 140.058C168.675 140.421 169.015 140.734 169.384 140.998C169.759 141.262 169.946 141.438 169.946 141.525C169.946 141.812 169.513 141.956 168.646 141.956H168.004C167.441 141.956 167.037 141.795 166.791 141.473L166.439 140.62C166.293 140.269 166.05 139.853 165.71 139.372C165.188 138.64 164.787 138.273 164.506 138.273Z" fill="#110D0D"/>
</svg>
