<svg width="262" height="279" viewBox="0 0 262 279" fill="none" xmlns="http://www.w3.org/2000/svg">
<path d="M158 0.913347H158.014L158.029 0.912517C183.987 -0.585069 203.405 2.04883 217.937 7.93697C232.455 13.8195 242.118 22.9585 248.563 34.5257C255.016 46.1067 258.256 60.1442 259.878 75.833C261.499 91.522 261.5 108.82 261.5 126.913C261.5 162.961 246.885 200.851 223.244 229.728C199.603 258.604 166.984 278.413 131 278.413C58.9268 278.413 0.5 219.987 0.5 147.913C0.5 111.928 21.8107 75.1773 52.2063 47.4015C82.5997 19.6276 121.985 0.913347 158 0.913347Z" fill="#FFF2D0" stroke="#110D0D"/>
<path d="M82.6182 134.102C82.1377 133.773 81.5957 133.609 80.9922 133.609C80.3945 133.609 79.9053 133.768 79.5244 134.084C79.1436 134.395 78.9531 134.834 78.9531 135.402C78.9531 135.965 79.2373 136.463 79.8057 136.896C80.1455 137.16 80.8398 137.518 81.8887 137.969C82.9375 138.42 83.667 138.836 84.0771 139.217C84.8623 139.943 85.2549 140.699 85.2549 141.484V141.801C85.2549 142.773 84.8682 143.564 84.0947 144.174C83.7373 144.455 83.292 144.681 82.7588 144.851C82.2256 145.015 81.6924 145.097 81.1592 145.097H80.834C79.627 145.097 78.5693 144.915 77.6611 144.552C77.251 144.388 77.0459 143.939 77.0459 143.207V142.899C77.0459 142.032 77.1953 141.599 77.4941 141.599C77.6992 141.599 77.9775 141.877 78.3291 142.434C78.6807 142.99 79.085 143.409 79.542 143.69C80.0049 143.972 80.5615 144.112 81.2119 144.112C81.8623 144.112 82.3867 143.942 82.7852 143.603C83.1836 143.257 83.3828 142.832 83.3828 142.328C83.3828 141.637 83.0605 141.054 82.416 140.579C82.1406 140.38 81.4492 140.025 80.3418 139.516C79.2344 139 78.4668 138.52 78.0391 138.074C77.4531 137.465 77.1602 136.721 77.1602 135.842C77.1602 134.963 77.4736 134.233 78.1006 133.653C78.4463 133.331 78.877 133.082 79.3926 132.906C79.9082 132.725 80.4355 132.634 80.9746 132.634H81.2998C81.5225 132.634 81.8389 132.672 82.249 132.748L82.5566 132.81C82.9199 132.88 83.1162 132.918 83.1455 132.924L83.418 132.941L83.6816 132.95C83.9277 132.968 84.1006 132.997 84.2002 133.038C84.5459 133.179 84.7188 133.668 84.7188 134.506C84.7188 135.344 84.5547 135.763 84.2266 135.763C84.0625 135.763 83.8164 135.528 83.4883 135.06C83.1602 134.591 82.8701 134.271 82.6182 134.102ZM92.4092 139.287V139.015C92.4092 138.581 92.2539 138.191 91.9434 137.846C91.6328 137.494 91.252 137.318 90.8008 137.318H90.6338C90.5518 137.33 90.4961 137.336 90.4668 137.336C90.0566 137.336 89.667 137.57 89.2979 138.039C88.9346 138.508 88.7529 139.009 88.7529 139.542V139.656C88.7529 139.844 88.8643 139.938 89.0869 139.938C89.1748 139.955 89.2217 139.964 89.2275 139.964L89.4297 139.973H89.4824L89.5439 139.964L91.2402 139.867L91.5566 139.832C92.125 139.832 92.4092 139.65 92.4092 139.287ZM88.7529 141.616C88.7529 142.284 89.0049 142.844 89.5088 143.295C90.0127 143.746 90.6514 143.972 91.4248 143.972C91.7354 143.972 92.0166 143.928 92.2686 143.84C92.5264 143.746 92.8047 143.635 93.1035 143.506C93.4082 143.377 93.5986 143.312 93.6748 143.312C93.9092 143.312 94.0264 143.438 94.0264 143.69C94.0264 144.03 93.5928 144.394 92.7256 144.78C92.1631 145.032 91.5596 145.158 90.915 145.158H90.7217C89.6201 145.158 88.7061 144.824 87.9795 144.156C87.5869 143.793 87.2822 143.33 87.0654 142.768C86.8486 142.199 86.7402 141.59 86.7402 140.939L86.749 140.737V140.535C86.749 139.973 86.8779 139.419 87.1357 138.874C87.3994 138.329 87.7129 137.881 88.0762 137.529C88.8438 136.791 89.7549 136.419 90.8096 136.413C92.4033 136.413 93.4639 137.034 93.9912 138.276C94.1553 138.669 94.2373 139.029 94.2373 139.357V139.533C94.2373 139.938 94.0703 140.21 93.7363 140.351C93.4023 140.485 92.6143 140.597 91.3721 140.685C90.1299 140.772 89.4561 140.831 89.3506 140.86C88.9521 140.96 88.7529 141.212 88.7529 141.616ZM95.8105 144.692C95.8105 144.569 95.9424 144.411 96.2061 144.218C96.4756 144.024 96.6572 143.723 96.751 143.312C96.8447 142.896 96.8916 141.326 96.8916 138.602C96.8916 135.877 96.8594 134.333 96.7949 133.97C96.7363 133.606 96.5869 133.346 96.3467 133.188C95.96 132.936 95.7666 132.78 95.7666 132.722V132.616C95.7666 132.517 95.8516 132.429 96.0215 132.353C96.5488 132.124 97.252 132.01 98.1309 132.01H98.3066C98.6055 132.01 98.7783 132.212 98.8252 132.616C98.8311 132.669 98.834 133.111 98.834 133.943V135.833L98.8252 136.193V136.747L98.8164 137.107C98.8164 137.107 98.8164 138.036 98.8164 139.894C98.8164 141.628 98.8428 142.703 98.8955 143.119C98.9541 143.529 99.0859 143.828 99.291 144.016C99.3145 144.033 99.4375 144.109 99.6602 144.244C99.8828 144.379 99.9941 144.517 99.9941 144.657C99.9941 144.862 99.6309 144.965 98.9043 144.965L98.5439 144.982H98.1836L96.7422 145.009H96.5576C96.0596 145.009 95.8105 144.903 95.8105 144.692ZM104.503 145.202H104.02C102.303 145.202 101.444 145.07 101.444 144.807C101.444 144.654 101.588 144.487 101.875 144.306C102.168 144.124 102.358 143.875 102.446 143.559C102.54 143.236 102.587 142.331 102.587 140.843C102.587 139.354 102.543 138.508 102.455 138.303C102.373 138.098 102.218 137.919 101.989 137.767C101.761 137.608 101.646 137.468 101.646 137.345C101.646 137.216 101.775 136.99 102.033 136.668C102.297 136.34 102.481 135.947 102.587 135.49C102.856 134.354 103.229 133.527 103.703 133.012C104.307 132.35 105.153 132.019 106.243 132.019C106.771 132.019 107.192 132.112 107.509 132.3C107.825 132.481 107.983 132.719 107.983 133.012C107.983 133.305 107.904 133.521 107.746 133.662C107.594 133.803 107.43 133.873 107.254 133.873C107.084 133.873 106.803 133.768 106.41 133.557C106.023 133.346 105.73 133.24 105.531 133.24C105.209 133.24 104.96 133.442 104.784 133.847C104.614 134.245 104.529 134.685 104.529 135.165C104.529 135.646 104.629 135.997 104.828 136.22C104.898 136.296 105.159 136.451 105.61 136.686C106.062 136.914 106.287 137.116 106.287 137.292C106.287 137.427 106.056 137.564 105.593 137.705C105.13 137.84 104.843 137.989 104.731 138.153C104.544 138.429 104.45 139.319 104.45 140.825C104.45 142.325 104.503 143.228 104.608 143.532C104.72 143.837 104.934 144.104 105.25 144.332C105.566 144.561 105.725 144.736 105.725 144.859C105.725 145.088 105.317 145.202 104.503 145.202ZM113.362 139.727V140.052C113.362 140.421 113.254 140.632 113.037 140.685C112.82 140.731 111.982 140.755 110.523 140.755H110.321L110.119 140.764H109.794L109.662 140.772H109.267L109.205 140.781H108.941L108.748 140.79H108.309C108.104 140.79 108.001 140.685 108.001 140.474V140.14C108.001 139.771 108.121 139.56 108.361 139.507C108.514 139.472 109.34 139.454 110.84 139.454L112.545 139.419H112.993C113.239 139.419 113.362 139.521 113.362 139.727ZM118.548 134.945V138.276C118.548 138.687 118.604 138.953 118.715 139.076C118.826 139.193 119.099 139.252 119.532 139.252H119.945C120.719 139.252 121.343 139.015 121.817 138.54C122.298 138.06 122.538 137.403 122.538 136.571V136.281C122.538 135.432 122.283 134.772 121.773 134.304C121.264 133.835 120.566 133.601 119.682 133.601H119.603C119.099 133.601 118.797 133.668 118.697 133.803C118.598 133.938 118.548 134.318 118.548 134.945ZM119.427 132.669H120.367C122.441 132.669 123.783 133.293 124.393 134.541C124.621 135.01 124.735 135.528 124.735 136.097V136.343C124.735 136.343 124.735 136.349 124.735 136.36C124.735 137.474 124.246 138.373 123.268 139.059C122.57 139.545 121.492 139.844 120.033 139.955C119.412 140.002 119.037 140.099 118.908 140.245C118.703 140.474 118.601 141.024 118.601 141.897C118.601 142.765 118.691 143.327 118.873 143.585C118.961 143.708 119.157 143.863 119.462 144.051C119.772 144.232 119.928 144.373 119.928 144.473C119.928 144.783 119.55 144.938 118.794 144.938H116.57C115.721 144.938 115.296 144.798 115.296 144.517C115.296 144.341 115.451 144.159 115.762 143.972C116.072 143.784 116.271 143.588 116.359 143.383C116.447 143.172 116.491 142.633 116.491 141.766L116.5 141.546C116.506 141.394 116.509 141.241 116.509 141.089C116.509 140.937 116.509 140.784 116.509 140.632L116.518 140.175V139.032L116.509 138.575C116.509 136.343 116.462 135.007 116.368 134.567C116.28 134.122 116.087 133.814 115.788 133.645C115.495 133.475 115.349 133.316 115.349 133.17C115.349 133.018 115.431 132.906 115.595 132.836C115.759 132.766 116.257 132.73 117.089 132.73L118.021 132.713L118.715 132.687C119.025 132.675 119.263 132.669 119.427 132.669ZM127.864 140.474V140.799C127.864 141.795 128.058 142.621 128.444 143.277C128.626 143.588 128.857 143.834 129.139 144.016C129.42 144.197 129.704 144.288 129.991 144.288H130.167C130.7 144.288 131.16 144.03 131.547 143.515C131.939 142.993 132.136 142.255 132.136 141.3V140.676C132.136 139.732 131.939 138.933 131.547 138.276C131.16 137.614 130.668 137.283 130.07 137.283H129.798C129.259 137.283 128.802 137.573 128.427 138.153C128.052 138.733 127.864 139.507 127.864 140.474ZM134.254 140.509V140.948C134.254 141.411 134.16 141.918 133.973 142.469C133.58 143.617 132.798 144.42 131.626 144.877C131.116 145.076 130.624 145.176 130.149 145.176H129.859C128.74 145.176 127.806 144.801 127.056 144.051C126.716 143.711 126.44 143.263 126.229 142.706C126.019 142.149 125.913 141.558 125.913 140.931V140.781C125.913 140.213 126.013 139.639 126.212 139.059C126.599 137.928 127.357 137.143 128.488 136.703C128.998 136.504 129.487 136.404 129.956 136.404H130.396C130.917 136.404 131.43 136.521 131.934 136.756C132.889 137.201 133.554 137.91 133.929 138.883C134.146 139.457 134.254 139.999 134.254 140.509ZM140.213 144.657C140.213 144.886 139.683 145 138.622 145H137.69L137.321 144.982L136.768 144.974C136.146 144.974 135.836 144.862 135.836 144.64C135.836 144.481 135.974 144.314 136.249 144.139C136.53 143.957 136.718 143.726 136.812 143.444C136.911 143.157 136.961 142.316 136.961 140.922C136.961 139.527 136.914 138.681 136.82 138.382C136.732 138.083 136.592 137.869 136.398 137.74C136.053 137.512 135.88 137.345 135.88 137.239C135.88 137.134 135.941 137.04 136.064 136.958C136.428 136.712 137.043 136.589 137.91 136.589H138.077C138.411 136.589 138.648 136.759 138.789 137.099C138.93 137.433 139.044 137.6 139.132 137.6C139.22 137.6 139.369 137.518 139.58 137.354C139.797 137.189 140.055 137.025 140.354 136.861C140.658 136.697 140.995 136.615 141.364 136.615C141.733 136.615 142.015 136.712 142.208 136.905C142.407 137.093 142.507 137.336 142.507 137.635C142.501 137.939 142.422 138.168 142.27 138.32C142.117 138.473 141.953 138.549 141.777 138.549C141.602 138.549 141.37 138.479 141.083 138.338C140.796 138.191 140.556 138.118 140.362 138.118C140.169 138.118 139.958 138.2 139.729 138.364C139.501 138.522 139.305 138.81 139.141 139.226C138.982 139.636 138.903 140.342 138.903 141.344C138.903 142.34 138.974 142.984 139.114 143.277C139.255 143.564 139.472 143.828 139.765 144.068C140.063 144.309 140.213 144.505 140.213 144.657ZM147.49 143.84L148.826 143.638C148.979 143.638 149.055 143.758 149.055 143.998C149.055 144.232 148.829 144.476 148.378 144.728C147.927 144.979 147.452 145.105 146.954 145.105H146.778C146.386 145.105 146.031 145.003 145.715 144.798C145.398 144.593 145.167 144.341 145.021 144.042C144.769 143.521 144.643 142.533 144.643 141.08C144.643 139.621 144.59 138.71 144.484 138.347C144.385 137.983 144.253 137.734 144.089 137.6C143.784 137.354 143.632 137.219 143.632 137.195C143.632 137.043 143.711 136.914 143.869 136.809C144.273 136.539 144.493 136.387 144.528 136.352C144.569 136.311 144.795 135.83 145.205 134.91C145.41 134.453 145.642 134.225 145.899 134.225C146.163 134.225 146.339 134.318 146.427 134.506C146.45 134.553 146.5 134.808 146.576 135.271C146.658 135.733 146.772 136.032 146.919 136.167C147.065 136.296 147.391 136.422 147.895 136.545C148.398 136.662 148.65 136.832 148.65 137.055C148.65 137.277 148.372 137.444 147.815 137.556C147.259 137.667 146.922 137.811 146.805 137.986C146.6 138.285 146.497 139.129 146.497 140.518C146.497 141.906 146.562 142.782 146.69 143.146C146.854 143.608 147.121 143.84 147.49 143.84ZM154.75 144.657C154.75 144.886 154.22 145 153.159 145H152.228L151.858 144.982L151.305 144.974C150.684 144.974 150.373 144.862 150.373 144.64C150.373 144.481 150.511 144.314 150.786 144.139C151.067 143.957 151.255 143.726 151.349 143.444C151.448 143.157 151.498 142.316 151.498 140.922C151.498 139.527 151.451 138.681 151.357 138.382C151.27 138.083 151.129 137.869 150.936 137.74C150.59 137.512 150.417 137.345 150.417 137.239C150.417 137.134 150.479 137.04 150.602 136.958C150.965 136.712 151.58 136.589 152.447 136.589H152.614C152.948 136.589 153.186 136.759 153.326 137.099C153.467 137.433 153.581 137.6 153.669 137.6C153.757 137.6 153.906 137.518 154.117 137.354C154.334 137.189 154.592 137.025 154.891 136.861C155.195 136.697 155.532 136.615 155.901 136.615C156.271 136.615 156.552 136.712 156.745 136.905C156.944 137.093 157.044 137.336 157.044 137.635C157.038 137.939 156.959 138.168 156.807 138.32C156.654 138.473 156.49 138.549 156.314 138.549C156.139 138.549 155.907 138.479 155.62 138.338C155.333 138.191 155.093 138.118 154.899 138.118C154.706 138.118 154.495 138.2 154.267 138.364C154.038 138.522 153.842 138.81 153.678 139.226C153.52 139.636 153.44 140.342 153.44 141.344C153.44 142.34 153.511 142.984 153.651 143.277C153.792 143.564 154.009 143.828 154.302 144.068C154.601 144.309 154.75 144.505 154.75 144.657ZM162.757 140.931H162.607C161.84 140.931 161.198 141.104 160.683 141.449C160.173 141.789 159.918 142.214 159.918 142.724V142.899C159.918 143.198 160.009 143.468 160.19 143.708C160.378 143.942 160.618 144.06 160.911 144.06L161.017 144.077H161.28C161.89 144.077 162.388 143.828 162.774 143.33C162.944 143.113 163.029 142.668 163.029 141.994C163.029 141.941 163.029 141.889 163.029 141.836L163.038 141.625V141.414C163.038 141.092 162.944 140.931 162.757 140.931ZM158.485 138.092C158.485 137.658 158.828 137.271 159.514 136.932C160.205 136.586 160.92 136.413 161.658 136.413C161.682 136.413 161.705 136.413 161.729 136.413C162.432 136.413 162.994 136.498 163.416 136.668C164.271 137.008 164.761 137.729 164.884 138.83C164.896 138.941 164.901 139.68 164.901 141.045C164.901 142.404 164.937 143.201 165.007 143.436C165.083 143.67 165.282 143.843 165.604 143.954C165.933 144.065 166.097 144.171 166.097 144.271C166.097 144.481 165.991 144.643 165.78 144.754C165.358 144.977 164.942 145.088 164.532 145.088C164.128 145.088 163.826 144.994 163.627 144.807C163.27 144.473 163.079 144.306 163.056 144.306C163.032 144.306 162.701 144.455 162.062 144.754C161.424 145.047 160.864 145.193 160.384 145.193C159.663 145.193 159.098 144.994 158.688 144.596C158.277 144.197 158.072 143.714 158.072 143.146V142.926C158.072 142.316 158.336 141.78 158.863 141.317C159.391 140.854 160.34 140.494 161.711 140.236C162.209 140.143 162.522 140.055 162.651 139.973C162.909 139.809 163.038 139.475 163.038 138.971C163.038 138.467 162.903 138.08 162.634 137.811C162.364 137.541 162.004 137.406 161.553 137.406C161.102 137.406 160.665 137.67 160.243 138.197C159.827 138.719 159.446 138.979 159.101 138.979C158.69 138.979 158.485 138.684 158.485 138.092ZM170.737 133.715C170.737 133.973 170.626 134.213 170.403 134.436C170.187 134.652 169.97 134.761 169.753 134.761C169.706 134.772 169.668 134.778 169.639 134.778L169.445 134.796C169.152 134.796 168.889 134.699 168.654 134.506C168.426 134.312 168.312 134.063 168.312 133.759V133.601C168.312 133.296 168.432 133.041 168.672 132.836C168.918 132.625 169.199 132.52 169.516 132.52H169.56L169.858 132.555C170.04 132.555 170.228 132.654 170.421 132.854C170.62 133.047 170.72 133.243 170.72 133.442L170.737 133.521V133.715ZM167.942 137.635C167.638 137.488 167.485 137.351 167.485 137.222C167.485 137.093 167.547 136.99 167.67 136.914C168.098 136.656 168.774 136.527 169.7 136.527H169.955C170.271 136.527 170.45 136.674 170.491 136.967C170.515 137.125 170.526 138.191 170.526 140.166C170.526 142.135 170.567 143.266 170.649 143.559C170.731 143.846 170.928 144.068 171.238 144.227C171.549 144.379 171.704 144.534 171.704 144.692C171.704 144.915 170.978 145.026 169.524 145.026L169.261 145.035H168.188C167.761 145.035 167.547 144.93 167.547 144.719C167.547 144.543 167.676 144.373 167.934 144.209C168.197 144.045 168.379 143.863 168.479 143.664C168.59 143.447 168.646 142.94 168.646 142.144L168.654 141.862V141.59L168.663 141.177V140.904L168.672 140.632C168.672 139.243 168.625 138.435 168.531 138.206C168.443 137.972 168.247 137.781 167.942 137.635ZM176.916 143.84L178.252 143.638C178.404 143.638 178.48 143.758 178.48 143.998C178.48 144.232 178.255 144.476 177.804 144.728C177.353 144.979 176.878 145.105 176.38 145.105H176.204C175.812 145.105 175.457 145.003 175.141 144.798C174.824 144.593 174.593 144.341 174.446 144.042C174.194 143.521 174.068 142.533 174.068 141.08C174.068 139.621 174.016 138.71 173.91 138.347C173.811 137.983 173.679 137.734 173.515 137.6C173.21 137.354 173.058 137.219 173.058 137.195C173.058 137.043 173.137 136.914 173.295 136.809C173.699 136.539 173.919 136.387 173.954 136.352C173.995 136.311 174.221 135.83 174.631 134.91C174.836 134.453 175.067 134.225 175.325 134.225C175.589 134.225 175.765 134.318 175.853 134.506C175.876 134.553 175.926 134.808 176.002 135.271C176.084 135.733 176.198 136.032 176.345 136.167C176.491 136.296 176.816 136.422 177.32 136.545C177.824 136.662 178.076 136.832 178.076 137.055C178.076 137.277 177.798 137.444 177.241 137.556C176.685 137.667 176.348 137.811 176.23 137.986C176.025 138.285 175.923 139.129 175.923 140.518C175.923 141.906 175.987 142.782 176.116 143.146C176.28 143.608 176.547 143.84 176.916 143.84ZM185.503 141.054C185.966 141.493 186.197 142.05 186.197 142.724C186.197 143.392 185.922 143.966 185.371 144.446C184.82 144.921 184.059 145.158 183.086 145.158H182.849C181.741 145.158 180.897 145.021 180.317 144.745C179.995 144.593 179.834 144.253 179.834 143.726V143.506C179.834 142.832 179.96 142.495 180.212 142.495C180.423 142.495 180.672 142.694 180.959 143.093C181.246 143.485 181.486 143.749 181.68 143.884C182.055 144.142 182.494 144.271 182.998 144.271C183.508 144.271 183.883 144.165 184.123 143.954C184.363 143.737 184.483 143.453 184.483 143.102C184.483 142.75 184.278 142.425 183.868 142.126C183.651 141.968 183.145 141.719 182.348 141.379C181.557 141.039 180.965 140.685 180.572 140.315C180.18 139.94 179.983 139.413 179.983 138.733C179.983 138.054 180.268 137.503 180.836 137.081C181.404 136.653 182.104 136.439 182.937 136.439H183.174C184.264 136.439 185.028 136.568 185.468 136.826C185.696 136.961 185.811 137.336 185.811 137.951C185.811 138.566 185.664 138.874 185.371 138.874C185.207 138.874 184.981 138.692 184.694 138.329C184.413 137.96 184.155 137.699 183.921 137.547C183.687 137.389 183.361 137.31 182.945 137.31C182.535 137.31 182.21 137.403 181.97 137.591C181.729 137.778 181.609 138.051 181.609 138.408C181.609 138.76 181.829 139.076 182.269 139.357C182.38 139.434 182.866 139.659 183.728 140.034C184.589 140.409 185.181 140.749 185.503 141.054Z" fill="#110D0D"/>
</svg>
