<svg width="157" height="67" viewBox="0 0 157 67" fill="none" xmlns="http://www.w3.org/2000/svg">
<path d="M1.0105 28.1008C0.356061 3.99569 30.4585 -5.36083 47.5027 5.46817C65.2792 16.7624 58.6554 45.3342 42.7308 59.1865C22.825 76.5018 1.82854 58.2321 1.0105 28.1008Z" stroke="#6D6D6D" stroke-width="2"/>
<path d="M155.99 28.1008C156.644 3.99569 126.542 -5.36083 109.497 5.46817C91.7208 16.7624 98.3446 45.3342 114.269 59.1865C134.175 76.5018 155.171 58.2321 155.99 28.1008Z" stroke="#6D6D6D" stroke-width="2"/>
<circle cx="65.0802" cy="29.6316" r="3.54486" fill="#313131"/>
<circle cx="92.0757" cy="29.6316" r="3.54486" fill="#313131"/>
<path d="M65.0802 45.7198C68.9118 49.6652 77.462 54.9281 85.2586 49.9615M85.2586 49.9615C86.8021 48.9783 88.316 47.5943 89.7579 45.7198C92.1211 47.1286 96.1386 50.7644 93.3028 54.0366C90.4669 57.3088 86.7584 52.6833 85.2586 49.9615Z" stroke="#535353" stroke-width="2"/>
</svg>
